<svg xmlns="http://www.w3.org/2000/svg" version="1.1" xmlns:xlink="http://www.w3.org/1999/xlink" xmlns:svgjs="http://svgjs.com/svgjs" id="BgenPttrnSvgRootPreview" width="100%" height="100%"><defs><pattern x="0" y="0" width="1" height="1" patternUnits="userSpaceOnUse" id="BgenPttrnLayer1"><g id="PatternRootContent1"><g id="BgenPttrnLayer1background"><rect width="1" height="1" id="BgenPttrnBackground1" class="color_1 fill_color_1" fill="#ffffff"></rect></g></g></pattern><pattern x="0" y="0" width="30" height="80" patternUnits="userSpaceOnUse" id="BgenPttrnLayer2" patternTransform="matrix(1,0,0,1,0,0)"><g id="PatternRootContent2"><g id="BgenPttrnLayer2Element1"><use xlink:href="#BgenPttrnElement1" x="18" y="-32" transform="translate(29, -21) scale(1.2) translate(-29, 21) rotate(0, 30, -20)"></use><use xlink:href="#BgenPttrnElement1" x="-12" y="-32" transform="translate(-1, -21) scale(1.2) translate(1, 21) rotate(0, 0, -20)"></use><use xlink:href="#BgenPttrnElement1" x="3" y="8" transform="translate(14, 19) scale(1.2) translate(-14, -19) rotate(0, 15, 20)"></use><use xlink:href="#BgenPttrnElement1" x="-27" y="8" transform="translate(-16, 19) scale(1.2) translate(16, -19) rotate(0, -15, 20)"></use><use xlink:href="#BgenPttrnElement1" x="33" y="8" transform="translate(44, 19) scale(1.2) translate(-44, -19) rotate(0, 45, 20)"></use><use xlink:href="#BgenPttrnElement1" x="18" y="48" transform="translate(29, 59) scale(1.2) translate(-29, -59) rotate(0, 30, 60)"></use><use xlink:href="#BgenPttrnElement1" x="-12" y="48" transform="translate(-1, 59) scale(1.2) translate(1, -59) rotate(0, 0, 60)"></use><use xlink:href="#BgenPttrnElement1" x="3" y="88" transform="translate(14, 99) scale(1.2) translate(-14, -99) rotate(0, 15, 100)"></use><use xlink:href="#BgenPttrnElement1" x="3" y="88" transform="translate(14, 99) scale(1.2) translate(-14, -99) rotate(0, 15, 100)"></use></g></g></pattern><symbol id="BgenPttrnElement1"><path d="M15,23H13V21H15V23M19,21H17V23H19V21M15,17H13V19H15V17M7,21H5V23H7V21M7,17H5V19H7V17M19,17H17V19H19V17M15,13H13V15H15V13M19,13H17V15H19V13M21,9A2,2 0 0,1 23,11V23H21V11H11V23H9V15H3V23H1V15A2,2 0 0,1 3,13H9V11A2,2 0 0,1 11,9V7A2,2 0 0,1 13,5H15V1H17V5H19A2,2 0 0,1 21,7V9M19,9V7H13V9H19Z" class="color_2 fill_color_2" fill="#e6e6e6"></path></symbol></defs><rect width="100%" height="100%" id="BgenPttrnRctLayer1" fill="url(#BgenPttrnLayer1)"></rect><rect width="100%" height="100%" id="BgenPttrnRctLayer2" fill="url(#BgenPttrnLayer2)"></rect></svg>